<svg xmlns="http://www.w3.org/2000/svg" pointer-events="none" class="leaflet-zoom-animated" width="1153" height="758" viewBox="-96 -63 1153 758" style="transform: translate3d(-96px, -63px, 0px);"><g><path class="leaflet-interactive" stroke="black" stroke-opacity="1" stroke-width="1" stroke-linecap="round" stroke-linejoin="round" fill="#fff" fill-opacity="0.2" fill-rule="evenodd" d="M618 285L621 280L620 275L625 269L621 266L618 261L619 260L615 256L616 252L624 252L625 251L622 246L626 241L634 237L644 237L648 241L651 238L654 239L655 237L652 230L656 225L658 225L660 221L659 220L661 219L664 223L668 223L669 219L671 218L667 213L658 213L657 211L656 212L654 210L640 214L638 215L638 217L630 217L625 212L621 213L614 208L601 208L597 205L593 207L585 207L583 209L578 209L571 205L570 202L567 201L564 197L563 191L558 188L558 184L555 182L556 180L550 174L543 172L542 173L537 164L534 164L532 161L527 159L527 153L522 149L519 142L522 130L521 124L516 124L510 120L509 122L507 122L509 130L507 134L507 139L504 141L499 137L493 138L489 141L484 139L478 140L477 146L481 154L481 160L474 158L471 159L467 157L463 149L457 152L456 154L458 161L468 171L472 178L475 178L480 189L478 192L472 191L469 188L464 190L453 190L451 192L451 195L448 192L446 192L440 185L437 190L438 193L434 198L432 198L433 199L426 208L427 210L425 216L421 215L416 220L417 225L413 224L408 229L403 231L400 230L396 235L392 236L389 230L378 227L375 232L364 234L361 242L357 241L350 247L351 248L349 249L347 254L348 257L356 257L354 259L355 261L353 264L355 264L353 269L357 271L365 283L370 286L370 288L380 290L382 296L381 297L385 301L385 306L389 313L383 314L380 316L379 319L377 318L375 320L372 329L368 331L369 332L367 334L367 340L360 338L356 332L352 336L350 336L351 340L347 344L332 343L330 344L329 347L322 346L321 352L318 351L314 353L312 357L309 356L300 366L296 368L294 372L295 376L291 378L290 385L301 390L302 393L308 398L306 402L309 404L307 413L317 419L314 423L311 423L306 426L301 422L296 426L292 426L291 429L293 433L303 437L302 445L304 447L302 450L303 453L301 454L300 457L304 457L308 461L306 468L307 471L310 469L311 465L313 465L318 470L317 471L320 472L322 469L326 468L328 470L329 468L338 468L340 476L339 477L344 479L344 483L348 482L350 489L352 489L353 491L353 489L356 491L363 491L364 490L362 489L362 487L364 483L366 483L369 480L371 482L374 482L376 480L375 477L379 476L379 469L383 472L387 479L388 477L389 478L389 476L391 476L391 471L394 471L394 475L397 475L397 473L400 472L401 476L414 474L415 476L416 475L419 477L422 476L423 473L427 473L429 471L433 473L433 475L435 474L436 477L440 479L439 487L444 494L451 496L456 503L474 506L478 504L477 499L475 497L473 499L472 496L470 497L471 491L469 490L468 487L472 487L472 491L476 491L475 487L481 485L481 480L488 481L488 477L491 476L491 471L497 469L499 467L498 466L505 464L508 469L522 469L524 472L528 471L523 467L523 464L528 464L529 466L534 466L537 471L539 467L548 464L546 460L550 457L550 453L561 450L560 448L557 449L558 447L556 441L562 437L559 431L563 429L563 427L567 427L568 425L565 422L567 422L564 419L564 414L561 410L560 414L556 411L553 412L545 403L543 403L543 401L542 404L538 401L538 387L533 384L536 376L535 372L537 366L541 368L550 362L553 365L560 362L562 362L562 364L566 362L567 365L570 362L572 366L575 365L577 367L581 367L584 363L587 362L587 360L593 357L599 357L603 359L606 358L606 356L611 357L611 355L613 358L615 358L616 352L618 352L621 348L625 347L627 349L629 346L632 345L634 341L641 342L643 337L641 334L647 334L646 332L649 333L648 332L651 330L648 330L646 327L649 326L646 323L649 322L648 320L641 319L639 316L638 307L631 308L631 305L627 301L627 295L624 293L621 286L618 287z"/><path class="leaflet-interactive" stroke="#333" stroke-opacity="1" stroke-width="0.5" stroke-linecap="round" stroke-linejoin="round" stroke-dasharray="1,6" fill="#fff" fill-opacity="0.2" fill-rule="evenodd" d="M476 405L477 400L474 395L474 392L476 392L476 387L475 388L476 387L473 386L470 383L470 381L469 384L466 383L468 393L468 405L464 405L469 408L471 407L470 405L476 405z"/><path class="leaflet-interactive" stroke="#333" stroke-opacity="1" stroke-width="0.5" stroke-linecap="round" stroke-linejoin="round" stroke-dasharray="1,6" fill="#fff" fill-opacity="0.2" fill-rule="evenodd" d="M454 399L454 403L459 406L468 405L466 384L467 381L463 382L463 387L460 388L459 386L459 388L455 388L457 399z"/><path class="leaflet-interactive" stroke="#333" stroke-opacity="1" stroke-width="0.5" stroke-linecap="round" stroke-linejoin="round" stroke-dasharray="1,6" fill="#fff" fill-opacity="0.2" fill-rule="evenodd" d="M504 370L495 364L496 360L480 353L479 360L471 361L469 365L466 365L467 367L459 368L464 376L464 381L467 381L466 384L469 384L469 381L476 387L476 392L474 392L475 398L477 398L476 408L477 407L480 409L477 410L473 415L475 415L481 420L488 417L488 415L493 416L492 414L499 414L503 416L506 411L505 410L509 408L508 406L510 403L509 401L507 401L507 399L509 397L508 393L510 393L510 387L513 387L511 378L512 375L505 371zM505 362L505 352L504 350L504 352L501 354L500 350L500 356L501 358L502 357L502 363L503 362L504 365L504 362z"/><path class="leaflet-interactive" stroke="#333" stroke-opacity="1" stroke-width="0.5" stroke-linecap="round" stroke-linejoin="round" stroke-dasharray="1,6" fill="#fff" fill-opacity="0.2" fill-rule="evenodd" d="M442 399L438 400L434 404L431 402L430 403L424 401L413 406L408 406L408 408L405 410L406 412L409 413L409 415L411 415L412 425L415 426L417 424L417 426L419 426L417 428L417 431L424 430L426 426L431 427L433 419L435 418L434 416L439 416L441 419L441 424L447 422L451 429L454 422L457 422L457 420L462 422L462 426L464 425L464 427L466 427L466 430L468 430L467 425L472 425L473 421L470 418L472 418L471 415L472 416L477 410L480 409L472 405L470 405L470 408L467 408L466 406L459 406L455 404L454 400L452 399L449 401L449 399L444 399z"/><path class="leaflet-interactive" stroke="#333" stroke-opacity="1" stroke-width="0.5" stroke-linecap="round" stroke-linejoin="round" stroke-dasharray="1,6" fill="#fff" fill-opacity="0.2" fill-rule="evenodd" d="M426 401L435 404L438 400L441 399L441 395L433 394L435 390L432 384L429 382L429 378L428 377L428 379L426 380L426 378L424 378L423 376L416 379L416 381L418 382L416 387L417 391L418 390L418 392L421 393L424 399z"/><path class="leaflet-interactive" stroke="#333" stroke-opacity="1" stroke-width="0.5" stroke-linecap="round" stroke-linejoin="round" stroke-dasharray="1,6" fill="#fff" fill-opacity="0.2" fill-rule="evenodd" d="M454 399L457 399L455 388L459 388L459 386L460 388L463 387L463 382L465 380L459 368L467 367L465 364L462 363L465 360L461 358L458 359L458 361L455 359L456 361L454 362L453 360L451 360L448 355L446 356L445 353L443 352L443 348L440 350L439 349L440 342L434 341L432 336L430 338L428 337L426 344L423 346L409 347L404 354L407 357L409 367L419 367L427 373L423 375L426 378L426 380L428 379L428 377L429 378L429 382L434 387L435 390L433 394L441 394L441 399L449 399L449 401L452 399z"/><path class="leaflet-interactive" stroke="#333" stroke-opacity="1" stroke-width="0.5" stroke-linecap="round" stroke-linejoin="round" stroke-dasharray="1,6" fill="#fff" fill-opacity="0.2" fill-rule="evenodd" d="M423 376L427 373L419 367L410 367L407 357L404 355L402 354L399 357L397 355L393 355L389 357L388 350L385 350L386 349L381 343L371 339L367 340L360 338L356 332L352 336L350 336L351 340L347 344L332 343L330 344L329 347L322 346L321 352L318 351L314 353L312 357L309 356L300 366L296 368L294 372L295 376L291 378L290 385L301 390L302 393L308 398L306 402L309 404L307 413L317 419L320 419L325 408L328 405L330 405L332 402L337 402L337 400L353 392L360 394L367 399L375 394L383 394L385 398L381 402L382 404L387 406L395 404L392 410L394 412L397 410L398 412L405 411L408 409L407 406L409 405L413 406L426 401L416 388L418 382L416 381L416 379L421 377z"/><path class="leaflet-interactive" stroke="#333" stroke-opacity="1" stroke-width="0.5" stroke-linecap="round" stroke-linejoin="round" stroke-dasharray="1,6" fill="#fff" fill-opacity="0.2" fill-rule="evenodd" d="M405 411L399 412L398 410L394 412L392 410L395 404L389 406L382 404L381 402L385 398L384 394L375 394L367 399L364 396L353 392L349 395L339 398L337 402L332 402L330 405L328 405L325 408L325 412L322 415L322 417L316 420L314 423L311 423L306 426L301 422L296 426L292 426L291 429L293 433L303 437L302 445L304 447L302 450L303 453L301 454L300 457L304 457L308 461L306 468L307 471L310 469L311 465L313 465L318 470L317 471L320 472L322 469L326 468L328 470L329 468L338 468L340 476L339 477L344 479L344 483L348 482L351 490L352 489L353 491L353 489L356 491L363 491L364 490L362 489L362 487L364 483L366 483L369 480L371 482L374 482L376 480L375 477L379 476L379 469L383 472L387 479L388 477L389 478L389 476L391 476L391 471L394 471L394 475L397 475L397 473L400 472L401 476L414 474L415 476L416 475L419 477L422 476L423 473L427 473L429 471L433 473L433 475L436 473L434 459L436 454L435 451L438 445L437 444L440 441L441 420L439 416L434 416L432 427L426 426L424 430L422 429L417 431L417 428L419 426L417 426L417 424L412 426L411 414L409 415L409 413L406 412z"/><path class="leaflet-interactive" stroke="#333" stroke-opacity="1" stroke-width="0.5" stroke-linecap="round" stroke-linejoin="round" stroke-dasharray="1,6" fill="#fff" fill-opacity="0.2" fill-rule="evenodd" d="M527 464L529 466L534 466L537 471L539 467L547 465L548 464L546 460L550 457L550 453L561 450L560 448L557 449L558 447L556 441L562 437L559 431L563 429L563 427L567 427L568 425L565 422L567 422L564 419L564 414L561 410L560 414L556 411L553 412L545 403L543 403L543 401L542 404L538 401L538 387L533 384L536 376L536 371L532 371L529 368L527 370L524 368L522 371L520 371L520 373L520 371L517 371L514 368L511 370L506 367L505 370L510 373L510 375L512 375L511 378L513 387L510 386L510 393L508 393L509 397L507 401L509 401L510 403L508 406L509 408L505 410L506 411L504 416L501 416L502 415L499 414L492 414L494 419L492 427L493 429L495 429L493 430L494 431L491 431L490 429L490 434L492 434L491 435L493 436L493 441L491 442L500 442L500 444L510 439L511 442L514 444L514 449L517 449L517 452L523 452L523 458L527 460L526 462z"/><path class="leaflet-interactive" stroke="#333" stroke-opacity="1" stroke-width="0.5" stroke-linecap="round" stroke-linejoin="round" stroke-dasharray="1,6" fill="#fff" fill-opacity="0.2" fill-rule="evenodd" d="M536 371L537 366L541 368L550 362L553 365L560 362L562 362L562 364L566 362L567 365L570 362L570 359L574 358L575 356L571 350L573 348L571 344L573 339L568 333L568 330L564 324L566 324L566 321L565 320L561 322L558 319L559 318L554 311L554 305L552 305L550 300L546 302L545 307L539 306L539 308L536 310L530 308L525 314L523 313L520 319L517 319L517 312L509 313L508 315L505 315L504 311L499 311L498 309L494 309L493 311L488 313L487 312L486 315L483 316L483 321L481 322L481 326L484 329L482 336L485 337L483 341L485 348L483 352L480 352L483 355L486 355L487 357L496 360L500 356L500 349L501 354L504 353L504 350L506 367L508 369L511 370L514 368L520 373L520 371L522 371L524 368L527 370L529 368L534 371zM500 356L495 363L504 370L506 367L505 362L504 365L503 362L502 363L502 357L501 358z"/><path class="leaflet-interactive" stroke="#333" stroke-opacity="1" stroke-width="0.5" stroke-linecap="round" stroke-linejoin="round" stroke-dasharray="1,6" fill="#fff" fill-opacity="0.2" fill-rule="evenodd" d="M466 365L469 365L470 361L479 360L480 353L481 351L483 352L485 348L483 341L485 337L482 337L484 329L481 326L481 322L483 316L487 313L483 311L481 307L477 306L478 299L475 295L472 296L463 294L464 295L462 296L462 291L459 288L461 287L454 282L449 283L449 281L447 285L442 283L440 285L434 284L422 288L423 294L420 292L421 299L419 300L417 300L415 296L411 296L409 294L406 294L406 298L402 300L398 295L392 297L390 299L393 302L391 306L392 309L389 311L389 313L383 314L380 316L379 319L377 318L372 329L368 331L369 332L367 334L369 339L381 343L386 349L385 350L388 350L389 357L392 355L397 355L399 357L402 354L403 355L411 346L418 347L426 345L428 338L430 338L431 336L433 341L440 342L440 350L442 350L442 348L443 352L445 352L446 356L448 355L450 360L453 360L454 362L456 361L455 359L457 361L463 358L465 359L462 363L465 364z"/><path class="leaflet-interactive" stroke="#333" stroke-opacity="1" stroke-width="0.5" stroke-linecap="round" stroke-linejoin="round" stroke-dasharray="1,6" fill="#fff" fill-opacity="0.2" fill-rule="evenodd" d="M527 464L527 460L523 458L523 453L520 451L517 452L517 450L515 448L514 449L514 445L510 439L500 444L500 442L492 442L492 436L493 437L491 435L492 434L490 434L490 430L494 431L493 430L495 429L493 429L492 427L494 421L492 417L493 416L489 415L487 418L481 420L478 417L471 415L472 418L470 418L473 421L473 423L472 425L467 425L468 430L466 430L466 427L464 427L464 425L462 426L462 423L457 420L452 429L450 428L447 422L441 424L440 440L437 444L438 445L435 451L436 454L434 459L436 470L435 474L436 477L440 479L439 487L441 491L444 494L451 496L456 503L474 506L477 505L477 499L475 497L473 499L472 496L470 497L471 491L469 490L468 487L472 487L472 491L476 491L475 487L481 485L481 480L488 481L488 477L491 476L491 471L497 469L499 467L498 466L505 464L508 469L522 469L524 472L528 471L523 467L523 464L527 464z"/><path class="leaflet-interactive" stroke="#333" stroke-opacity="1" stroke-width="0.5" stroke-linecap="round" stroke-linejoin="round" stroke-dasharray="1,6" fill="#fff" fill-opacity="0.2" fill-rule="evenodd" d="M448 281L449 283L454 282L458 286L460 286L461 287L459 290L462 290L462 295L475 295L476 298L478 299L476 303L478 307L481 307L483 311L488 313L491 313L493 312L493 309L498 308L499 310L502 310L503 312L504 311L505 315L511 312L517 312L517 318L519 319L523 315L523 313L525 314L536 299L533 295L527 294L528 290L524 285L526 283L525 280L530 276L528 274L527 275L527 265L524 265L521 261L523 260L521 258L522 254L526 249L523 246L523 244L519 244L518 242L516 243L519 242L519 240L524 240L525 238L525 231L522 227L525 221L525 212L531 207L538 207L539 200L537 195L546 195L548 193L547 190L553 187L552 185L557 183L555 182L556 180L550 174L543 172L542 173L537 164L534 164L532 161L527 159L527 153L522 149L519 142L522 130L521 124L516 124L510 120L509 122L507 122L509 130L507 134L507 139L504 141L499 137L493 138L489 141L484 139L478 140L477 146L481 154L481 160L474 158L471 159L467 157L463 149L457 152L456 154L458 161L468 171L472 178L475 178L479 188L483 190L483 192L485 192L489 197L486 207L487 208L484 209L483 212L484 214L489 214L490 217L494 218L496 221L500 223L499 225L494 225L491 235L479 249L482 252L485 251L490 256L485 260L479 258L478 260L474 261L471 259L467 262L465 261L466 260L462 255L455 255L450 259L449 258L448 259L450 265L448 269L449 274L447 280z"/><path class="leaflet-interactive" stroke="#333" stroke-opacity="1" stroke-width="0.5" stroke-linecap="round" stroke-linejoin="round" stroke-dasharray="1,6" fill="#fff" fill-opacity="0.2" fill-rule="evenodd" d="M570 362L572 366L575 365L577 367L581 367L584 363L587 362L587 360L593 357L599 357L603 359L606 358L606 356L611 357L611 355L613 358L615 358L616 352L618 352L621 348L625 347L627 349L629 346L632 345L634 341L641 342L643 337L641 334L647 334L646 332L649 333L648 332L651 330L648 330L646 327L649 326L646 323L649 322L648 320L641 319L639 316L638 307L631 308L631 305L627 301L627 295L624 293L621 286L618 287L618 285L606 285L600 290L594 289L588 294L582 294L578 299L578 305L570 309L568 312L573 315L570 319L569 318L565 320L566 324L564 324L566 329L568 330L568 333L570 333L573 339L571 344L575 356L573 359L570 359z"/><path class="leaflet-interactive" stroke="#333" stroke-opacity="1" stroke-width="0.5" stroke-linecap="round" stroke-linejoin="round" stroke-dasharray="1,6" fill="#fff" fill-opacity="0.2" fill-rule="evenodd" d="M618 285L621 280L620 275L625 269L621 266L618 261L619 260L615 256L616 252L624 252L625 251L622 246L626 241L634 237L644 237L648 241L651 238L654 239L655 237L652 230L656 225L658 225L660 221L659 220L661 219L664 223L668 223L669 219L671 218L669 215L667 213L663 214L652 210L640 214L638 215L638 217L630 217L625 212L621 213L614 208L601 208L597 205L593 207L585 207L583 209L578 209L567 201L563 195L563 191L558 188L557 183L552 185L553 187L547 190L547 195L541 196L538 194L538 207L531 207L525 212L525 220L523 223L525 238L516 243L518 242L519 244L523 244L524 248L526 249L522 254L521 258L523 260L521 260L524 265L527 265L527 274L530 276L525 280L526 283L524 285L528 290L527 293L531 294L535 299L530 307L536 311L539 308L539 306L545 307L546 302L550 300L551 305L554 305L554 311L558 316L558 319L561 322L563 322L573 315L568 312L572 309L572 307L577 305L579 301L578 299L581 294L587 294L593 291L594 289L599 290L606 285L617 285z"/><path class="leaflet-interactive" stroke="#333" stroke-opacity="1" stroke-width="0.5" stroke-linecap="round" stroke-linejoin="round" stroke-dasharray="1,6" fill="#fff" fill-opacity="0.2" fill-rule="evenodd" d="M389 311L392 309L391 307L393 303L390 299L394 296L395 297L397 295L400 297L401 300L406 298L406 294L408 294L411 296L415 296L417 300L419 300L421 299L420 293L422 292L422 294L423 292L422 288L434 284L441 285L442 283L447 285L449 274L448 269L451 263L448 259L450 259L454 255L464 256L464 259L467 262L471 259L474 261L478 260L479 258L484 260L490 257L486 251L482 252L479 249L491 235L493 231L493 225L500 224L489 214L485 214L483 212L487 206L489 197L487 197L487 194L483 192L483 190L478 192L472 191L469 188L464 190L453 190L451 192L451 195L448 192L446 192L440 185L437 190L438 193L434 198L432 198L433 199L426 208L427 210L425 216L421 215L416 220L417 225L413 224L408 229L403 231L400 230L396 235L392 236L389 230L378 227L375 232L364 234L361 242L357 241L350 247L351 248L349 249L347 254L348 257L356 257L354 259L355 261L353 264L355 264L353 269L357 271L365 283L370 286L370 288L380 290L382 296L381 297L385 301L385 306L388 310z"/></g></svg>